<?xml version="1.0" encoding="UTF-8" standalone="no"?>
<!DOCTYPE svg PUBLIC "-//W3C//DTD SVG 1.1//EN" "http://www.w3.org/Graphics/SVG/1.1/DTD/svg11.dtd">
<!-- Created with Vectornator (http://vectornator.io/) -->
<svg stroke-miterlimit="10" style="fill-rule:nonzero;clip-rule:evenodd;stroke-linecap:round;stroke-linejoin:round;" version="1.1" viewBox="0 0 512 512" xml:space="preserve" xmlns="http://www.w3.org/2000/svg" xmlns:xlink="http://www.w3.org/1999/xlink">
<defs>
<linearGradient gradientTransform="matrix(0.660156 0 0 0.660156 53.9819 -253.317)" gradientUnits="userSpaceOnUse" id="LinearGradient" x1="84.315" x2="527.72" y1="771.51" y2="771.51">
<stop offset="0" stop-color="#ffffff"/>
</linearGradient>
</defs>
<clipPath id="ArtboardFrame">
<rect height="512" width="512" x="0" y="0"/>
</clipPath>
<g clip-path="url(#ArtboardFrame)" id="Layer-1">
<path d="M0 0L512 0L512 0L512 512L512 512L0 512L0 512L0 0L0 0Z" fill="#0072ff" fill-rule="nonzero" opacity="1" stroke="#000000" stroke-linecap="butt" stroke-linejoin="round" stroke-width="0"/>
</g>
<g id="Untitled">
<g opacity="1">
<path d="M256.001 87L109.644 171.5L109.644 340.5L256.001 425L402.358 340.5L402.358 171.5L256.001 87ZM240.891 107.358C249.838 113.96 262.045 113.96 270.994 107.358L377.107 168.625C376.895 170.509 376.895 172.41 377.107 174.294L270.994 235.561C262.046 228.959 249.84 228.959 240.892 235.561L134.778 174.292C134.991 172.408 134.991 170.506 134.778 168.622L240.892 107.358L240.891 107.358ZM387.307 191.218C388.832 192.343 390.48 193.294 392.218 194.053L392.218 316.584C382.026 321.032 375.923 331.604 377.167 342.654L271.054 403.92C269.528 402.794 267.88 401.844 266.142 401.086L266.024 279.234C276.215 274.786 282.318 264.216 281.075 253.166L387.307 191.215L387.307 191.218ZM124.69 191.9L230.803 253.165C229.56 264.216 235.664 274.786 245.856 279.234L245.856 401.765C244.118 402.524 242.47 403.475 240.945 404.601L134.838 343.338C136.081 332.288 129.978 321.718 119.787 317.27L119.787 194.738C121.525 193.98 123.171 193.029 124.697 191.903L124.69 191.9Z" fill="url(#LinearGradient)" fill-rule="nonzero" opacity="1" stroke="none"/>
<g opacity="1">
<path d="M402.358 171.5L256.001 256L256.001 425L402.358 340.5L402.358 171.5ZM387.305 191.216C388.831 192.341 390.479 193.292 392.217 194.051L392.217 316.582C382.025 321.03 375.922 331.602 377.166 342.652L271.052 403.918C269.526 402.792 267.879 401.842 266.141 401.084L266.022 279.232C276.214 274.784 282.317 264.214 281.073 253.164L387.306 191.214L387.305 191.216Z" fill="#000000" fill-opacity="0.25098" fill-rule="nonzero" opacity="1" stroke="none"/>
<path d="M109.642 171.5L109.642 340.5L255.999 425L255.999 256L109.642 171.5ZM124.693 191.898L230.807 253.163C229.563 264.214 235.667 274.783 245.859 279.232L245.859 401.763C244.121 402.522 242.474 403.473 240.948 404.598L134.834 343.336C136.078 332.286 129.975 321.716 119.783 317.268L119.783 194.736C121.521 193.978 123.168 193.027 124.693 191.901L124.693 191.898Z" fill="#000000" fill-opacity="0.039216" fill-rule="nonzero" opacity="1" stroke="none"/>
<path d="M256.001 87L109.644 171.5L256.001 256L402.358 171.5L256.001 87ZM240.891 107.358C249.838 113.96 262.045 113.96 270.994 107.358L377.107 168.625C376.895 170.509 376.895 172.41 377.107 174.294L270.994 235.561C262.046 228.959 249.84 228.959 240.892 235.561L134.778 174.292C134.991 172.408 134.991 170.506 134.778 168.622L240.892 107.358L240.891 107.358Z" fill="#000000" fill-opacity="0.13018" fill-rule="nonzero" opacity="1" stroke="none"/>
</g>
</g>
</g>
</svg>
