<svg width="160" height="160" viewBox="0 0 160 160" fill="none" xmlns="http://www.w3.org/2000/svg">
<rect x="63.8486" y="96.1514" width="32.3028" height="32.3028" rx="2.5" transform="rotate(-90 63.8486 96.1514)" stroke="black" stroke-width="3"/>
<rect x="69.9834" y="90.0166" width="20.0336" height="20.0336" transform="rotate(-90 69.9834 90.0166)" fill="#0072FF"/>
<path d="M48.7061 36.9445V44.0957H55.8573V42.0195H69.036V62.3486H72.036V40.5195C72.036 39.6911 71.3645 39.0195 70.536 39.0195H55.8573V36.9445H48.7061Z" fill="black"/>
<path d="M48.7061 123.055V115.905H55.8573V117.981H69.036V97.6553H72.036V119.481C72.036 120.309 71.3645 120.981 70.536 120.981H55.8573V123.055H48.7061Z" fill="black"/>
<path d="M111.138 36.9486V44.0987H103.986V42.0228H90.8077V62.3486H87.8077V40.5231C87.8077 39.6948 88.4793 39.0233 89.3077 39.0233H103.986V36.9486H111.138Z" fill="black"/>
<path d="M111.138 123.056V115.904H103.986V117.98H90.8077V97.6514H87.8077V119.48C87.8077 120.309 88.4793 120.98 89.3077 120.98H103.986V123.056H111.138Z" fill="black"/>
<path fill-rule="evenodd" clip-rule="evenodd" d="M29.5986 96.2346V103.369H36.7332V96.2346H29.5986ZM31.6659 77.5224V96.2344H34.6659V79.0224H62.3484V76.0224H33.1659C32.3375 76.0224 31.6659 76.694 31.6659 77.5224Z" fill="#0072FF"/>
<path fill-rule="evenodd" clip-rule="evenodd" d="M130.401 63.4451V56.3105H123.267V63.4451H130.401ZM128.334 82.1573V63.4453H125.334V80.6573H97.6516V83.6573H126.834C127.663 83.6573 128.334 82.9857 128.334 82.1573Z" fill="#0072FF"/>
</svg>
