<?xml version="1.0" encoding="UTF-8"?>
<svg id="Layer_2" data-name="Layer 2" xmlns="http://www.w3.org/2000/svg" viewBox="0 0 56 14">
  <defs>
    <style>
      .cls-1 {
        fill: #0b70ff;
      }
    </style>
  </defs>
  <g id="Layer_1-2" data-name="Layer 1">
    <g id="Layer_2-2" data-name="Layer 2">
      <g id="_图层_1" data-name="图层 1">
        <path d="M39.28,8.26c-.79-1.17-2.69-1.79-4.05-2.16-.16-.04-.32-.08-.5-.13h0c-.73-.19-1.57-.39-2.21-.74-.74-.41-1.1-.94-1.1-1.62,0-.11,0-.22,.03-.32v-.02s.03-.1,.04-.15t0-.02h0c.09-.29,.26-.55,.47-.75,.55-.56,1.43-.87,2.41-.87h.03c.72,.02,1.44,.19,2.09,.49,.66,.3,1.24,.71,1.74,1.23v1.41s0,.03,0,.03h1.22V.39h-1.22v.97s0,.03-.02,.04c0,0-.03,0-.04-.02-.52-.39-1.09-.71-1.71-.92-.66-.22-1.34-.34-2.04-.35-.8,0-1.45,.09-1.99,.27-.45,.15-.87,.38-1.24,.69-.4,.32-.71,.71-.94,1.17-.21,.44-.32,.92-.32,1.41,0,.29,.03,.58,.1,.85,.09,.31,.23,.6,.42,.86,.02,.03,.04,.05,.05,.07s.02,.02,.03,.04v.02c.82,1.1,2.6,1.6,3.91,1.96h.04s.29,.09,.29,.09l.32,.08c.68,.17,1.34,.39,1.99,.67,.33,.15,.63,.37,.87,.66,.21,.26,.36,.58,.43,.91,.06,.33,.04,.68-.07,1-.13,.37-.34,.71-.62,.98-.31,.27-.67,.48-1.06,.6-.38,.12-.78,.19-1.18,.21-.64,.03-1.28-.04-1.89-.21-1.04-.33-1.99-.97-2.61-1.75-.02-.03-.04-.06-.05-.08v-1.22s0-.03,0-.03h-1.22v4.45h1.22v-1.3c.51,.45,1.1,.8,1.74,1.03,.75,.28,1.54,.43,2.34,.45h.1c.68,0,2.27,0,3.51-1.06,.34-.3,.63-.66,.84-1.07,.2-.39,.33-.82,.39-1.25,.06-.42,.04-.84-.06-1.25-.06-.4-.24-.78-.48-1.1Z"/>
        <path d="M27.2,8.26c-.77-1.17-2.68-1.79-4.05-2.16-.16-.04-.32-.08-.49-.12-1.48-.37-3.33-.83-3.35-2.37,0-.23,.05-.46,.14-.67,.1-.22,.24-.43,.42-.59,.56-.55,1.43-.86,2.4-.86h.03c.72,.02,1.44,.19,2.09,.49,.65,.3,1.24,.71,1.73,1.23l.03,1.41v.02h1.22V.39h-1.22v.97s0,.03-.02,.04c0,0-.02,0-.04-.02-.52-.39-1.09-.71-1.71-.92-.66-.22-1.34-.34-2.04-.35-.8,0-1.45,.09-1.99,.27-.45,.15-.87,.38-1.23,.69-.4,.32-.71,.71-.94,1.17-.21,.45-.32,.93-.32,1.41,0,.29,.03,.58,.1,.85,.09,.31,.23,.59,.41,.86,.77,1.2,2.65,1.72,4.02,2.09h.04s.27,.08,.27,.08l.29,.07h.03c.68,.18,1.34,.4,1.99,.68,.33,.15,.64,.38,.87,.66,.21,.27,.36,.58,.43,.92s.04,.68-.07,1c-.13,.37-.34,.71-.62,.97-.31,.27-.67,.48-1.06,.6-.38,.12-.78,.19-1.18,.2-.08,0-.17,0-.26,0-.56,0-1.11-.07-1.65-.22-.06-.02-.13-.04-.19-.06h0c-.13-.05-.25-.09-.37-.15-.6-.27-1.16-.64-1.63-1.1l-.03-.02c-.07-.07-.15-.16-.22-.23l-.06-.06s-.06-.07-.09-.11c-.02-.03-.04-.06-.05-.08v-1.22s0-.02,0-.02h-1.24v4.45h1.23v-1.3c.51,.45,1.1,.8,1.74,1.03,.75,.28,1.54,.43,2.34,.45h.1c.68,0,2.26,0,3.51-1.06,.34-.3,.63-.66,.84-1.07,.2-.39,.33-.81,.39-1.24,.06-.42,.04-.84-.06-1.25-.06-.41-.23-.78-.48-1.11Z"/>
        <path d="M14.65,12.77l-3.35-5.07c.57,.02,1.13-.08,1.65-.32,.73-.37,1.32-.84,1.68-1.54,.3-.58,.44-1.21,.44-1.86,0-1.01-.4-1.99-1.11-2.71-.77-.71-1.73-1.04-2.95-1.04H4.54V1.63h1.37V12.78h-1.49v1.17h4.35v-1.17h-1.4V7.71h2.34l3.27,5.06h-1.48v1.17h4.67v-1.17h-1.46s-.03,0-.05,0ZM7.37,1.57h3.59c1.1,0,1.95,.44,2.37,1.19,.42,.77,.41,1.7-.04,2.46-.44,.74-.95,1.15-2.11,1.15h-3.81V1.57Z"/>
        <path d="M51.01,9.9c0-1.68-.85-2.9-2.25-3.42,1.2-.63,1.71-1.66,1.71-2.72,0-2.46-2.06-3.76-4.74-3.76-1.46,0-3.02,.5-4.09,2l1.11,.72c.59-.8,1.45-1.42,2.97-1.42,1.95,0,3.33,.79,3.33,2.3s-1.38,2.25-2.8,2.25h-1.93v1.39h2.04c1.81,0,3.23,.97,3.19,2.64-.1,1.76-1.65,2.71-3.69,2.71-1.31,0-2.76-.41-3.85-1.57l-.06-.02-.95,1.04h.05c1.36,1.29,2.98,1.95,4.8,1.95,2.81,0,5.13-1.52,5.13-4.09Z"/>
        <rect class="cls-1" y="6.36" width="3.52" height="1.44"/>
        <rect class="cls-1" x="52.48" y="6.36" width="3.52" height="1.44"/>
      </g>
    </g>
  </g>
</svg>