<?xml version="1.0" encoding="UTF-8"?>
<svg id="Layer_2" data-name="Layer 2" xmlns="http://www.w3.org/2000/svg" viewBox="0 0 10 40">
  <defs>
    <style>
      .cls-1 {
        fill: #0b70ff;
      }
    </style>
  </defs>
  <g id="Layer_1-2" data-name="Layer 1">
    <g id="Layer_2-2" data-name="Layer 2">
      <g id="_图层_1" data-name="图层 1">
        <path d="M4.1,28.06c.84-.56,1.28-1.92,1.55-2.89,.03-.11,.06-.23,.09-.36h0c.13-.53,.28-1.13,.53-1.59,.29-.53,.67-.79,1.15-.79,.08,0,.16,0,.23,.02h.01s.07,.02,.11,.03t.01,0h0c.2,.07,.38,.19,.53,.34,.4,.39,.62,1.02,.62,1.72v.02c-.01,.52-.13,1.03-.35,1.5-.21,.47-.51,.89-.88,1.24h-1.01s-.02,0-.02,0v.87s3.04,0,3.04,0v-.87s-.69,0-.69,0c-.01,0-.02,0-.03-.01,0,0,0-.02,.01-.03,.28-.37,.5-.78,.66-1.22,.16-.47,.25-.96,.25-1.46,0-.57-.07-1.03-.19-1.42-.11-.32-.27-.62-.49-.89-.23-.28-.51-.51-.84-.67-.31-.15-.66-.23-1.01-.23-.21,0-.41,.02-.61,.07-.22,.07-.43,.17-.62,.3-.02,.01-.03,.03-.05,.03s-.01,.01-.03,.02h-.01c-.79,.58-1.14,1.86-1.4,2.79v.03s-.07,.21-.07,.21l-.06,.23c-.12,.48-.28,.96-.48,1.42-.11,.24-.27,.45-.47,.62-.19,.15-.41,.26-.65,.3-.24,.05-.48,.03-.72-.05-.27-.09-.5-.24-.7-.44-.19-.22-.34-.48-.43-.75-.09-.27-.14-.56-.15-.84-.02-.46,.03-.91,.15-1.35,.24-.74,.69-1.42,1.25-1.87,.02-.01,.04-.03,.06-.03h.87s.02,0,.02,0v-.87s-3.18,0-3.18,0v.87s.93,0,.93,0c-.32,.36-.57,.79-.74,1.24C.12,23.84,.01,24.41,0,24.98v.07c0,.48,0,1.62,.76,2.51,.21,.24,.47,.45,.76,.6,.28,.15,.58,.24,.9,.28,.3,.04,.6,.03,.9-.04,.29-.05,.56-.17,.79-.34Z"/>
        <path d="M4.1,19.43c.84-.55,1.28-1.91,1.55-2.89,.03-.11,.06-.23,.09-.35,.27-1.06,.59-2.38,1.69-2.39,.17,0,.33,.03,.48,.1,.16,.07,.31,.17,.42,.3,.39,.4,.62,1.02,.62,1.71v.02c-.01,.52-.13,1.03-.35,1.49-.21,.46-.51,.89-.88,1.24l-1.01,.02h-.01s0,.87,0,.87h3.04s0-.87,0-.87h-.69s-.02,0-.03-.01c0,0,0-.01,.01-.03,.28-.37,.5-.78,.66-1.22,.16-.47,.25-.96,.25-1.46,0-.57-.07-1.04-.19-1.42-.11-.32-.27-.62-.49-.88-.23-.28-.51-.51-.84-.67-.32-.15-.66-.23-1.01-.23-.21,0-.41,.02-.61,.07-.22,.07-.42,.17-.62,.29-.86,.55-1.23,1.89-1.49,2.87v.03s-.06,.19-.06,.19l-.05,.21v.02c-.13,.48-.29,.96-.48,1.42-.11,.24-.27,.46-.47,.62-.19,.15-.42,.26-.66,.3s-.48,.03-.72-.05c-.27-.09-.5-.24-.7-.44-.19-.22-.34-.48-.43-.75-.09-.27-.14-.56-.15-.84,0-.06,0-.12,0-.19,0-.4,.05-.79,.16-1.18,.01-.05,.03-.09,.05-.13h0c.03-.1,.07-.19,.11-.27,.19-.43,.46-.83,.78-1.16v-.02c.07-.05,.13-.11,.18-.16l.05-.04s.05-.05,.08-.07c.02-.01,.04-.03,.06-.03h.87s.01,0,.01,0v-.89s-3.18,0-3.18,0v.88s.93,0,.93,0c-.32,.36-.57,.79-.74,1.24C.12,15.21,.01,15.77,0,16.35v.07c0,.48,0,1.62,.76,2.51,.21,.24,.47,.45,.76,.6,.28,.15,.58,.24,.89,.28,.3,.04,.6,.03,.9-.04,.29-.04,.56-.17,.8-.34Z"/>
        <path d="M.88,10.47l3.62-2.39c-.01,.4,.06,.81,.23,1.18,.27,.52,.6,.94,1.1,1.2,.41,.21,.86,.32,1.33,.32,.72,0,1.42-.28,1.94-.79,.5-.55,.74-1.24,.74-2.1V3.24s-1,0-1,0v.98H.87v-1.07s-.84,0-.84,0v3.1s.84,0,.84,0v-1h3.62v1.67S.88,9.27,.88,9.27v-1.06s-.84,0-.84,0v3.34s.84,0,.84,0v-1.05s0-.02,0-.03Zm8-5.2v2.56c0,.79-.31,1.39-.85,1.69-.55,.3-1.21,.29-1.76-.03-.53-.31-.82-.68-.82-1.51v-2.72h3.43Z"/>
        <path d="M2.93,36.44c1.2,0,2.07-.61,2.44-1.61,.45,.85,1.19,1.22,1.94,1.22,1.76,0,2.69-1.47,2.69-3.38,0-1.05-.36-2.16-1.43-2.92l-.52,.79c.57,.42,1.01,1.03,1.01,2.12,0,1.39-.56,2.38-1.64,2.38s-1.6-.99-1.6-2v-1.38s-.99,0-.99,0v1.46c0,1.29-.7,2.31-1.88,2.28-1.26-.07-1.94-1.18-1.94-2.63,0-.93,.29-1.97,1.12-2.75v-.04s-.73-.68-.73-.68v.03C.48,30.32,0,31.47,0,32.77c0,2.01,1.09,3.67,2.92,3.67Z"/>
        <rect class="cls-1" x="4.43" y="0" width="1.03" height="2.52"/>
        <rect class="cls-1" x="4.43" y="37.48" width="1.03" height="2.52"/>
      </g>
    </g>
  </g>
</svg>